<?xml version="1.0" standalone="no"?>
<!DOCTYPE svg PUBLIC "-//W3C//DTD SVG 20010904//EN"
 "http://www.w3.org/TR/2001/REC-SVG-20010904/DTD/svg10.dtd">
<svg version="1.0" xmlns="http://www.w3.org/2000/svg"
 width="16.000000pt" height="16.000000pt" viewBox="0 0 16.000000 16.000000"
 preserveAspectRatio="xMidYMid meet">
<metadata>
Created by potrace 1.11, written by Peter Selinger 2001-2013
</metadata>
<g transform="translate(0.000000,16.000000) scale(0.003333,-0.003333)"
fill="#000000" stroke="none">
<path d="M1347 4794 c-1 -1 -67 -4 -147 -8 -135 -5 -305 -21 -340 -31 -8 -2
-31 -7 -50 -10 -64 -10 -164 -46 -244 -88 -256 -133 -445 -373 -506 -642 -17
-74 -19 -86 -25 -130 -3 -22 -7 -56 -10 -75 -14 -111 -19 -450 -18 -1435 0
-1216 1 -1270 20 -1417 31 -248 83 -387 202 -546 109 -143 247 -251 421 -327
54 -23 220 -63 302 -72 93 -10 2836 -11 2903 0 28 4 66 10 85 12 19 3 78 18
130 32 200 55 382 181 513 357 87 116 132 209 168 349 48 187 48 188 48 1622
0 1392 -1 1425 -40 1600 -76 347 -333 632 -659 733 -135 41 -256 59 -463 68
-113 5 -2285 12 -2290 8z"/>
</g>
</svg>
