<?xml version="1.0" encoding="utf-8"?>
<!-- Generator: Adobe Illustrator 19.0.0, SVG Export Plug-In . SVG Version: 6.00 Build 0)  -->
<svg version="1.1" id="DBW" xmlns="http://www.w3.org/2000/svg" xmlns:xlink="http://www.w3.org/1999/xlink" x="0px" y="0px"
	 viewBox="-299 271 181.2 46.3" style="enable-background:new -299 271 181.2 46.3;" xml:space="preserve">
<g id="DBW_1_">
	<g id="D_2_" transform="matrix(1,0,0,1,-20,5.68434e-14)">
		<g transform="matrix(1.2,0,0,1.2,155,100)">
			<circle class="st0" cx="-342.4" cy="161.8" r="19.3"/>
		</g>
		<g transform="matrix(0.6,0,0,1.2,395,100)">
			<rect x="-1123.3" y="142.5" class="st0" width="38.5" height="38.5"/>
		</g>
	</g>
	<g id="B_2_" transform="matrix(1,0,0,1,120,5.68434e-14)">
		<g id="circle-2_2_" transform="matrix(0.6,0,0,0.6,395,280)">
			<circle class="st0" cx="-1208.8" cy="42.8" r="19.3"/>
		</g>
		<g id="circle-1_2_" transform="matrix(0.6,0,0,0.6,395,220)">
			<circle class="st0" cx="-1208.8" cy="104.3" r="19.3"/>
		</g>
		<g id="box_2_" transform="matrix(0.9,-4.17145e-18,-5.58083e-18,1.2,335,100)">
			<rect x="-777.8" y="142.5" class="st0" width="38.5" height="38.5"/>
		</g>
	</g>
	<g id="W_2_" transform="matrix(0.974026,-6.3618e-18,-6.3618e-18,1,302.338,150)">
		<g id="triangle-2_2_" transform="matrix(0.84,-1.59263e-18,-2.48975e-18,1.09091,-131.667,-28.1818)">
			<path class="st0" d="M-421,136.7l32.1,42.4l32.1-42.4H-421z"/>
		</g>
		<g id="triangle-1_2_" transform="matrix(0.84,-1.59263e-18,-2.48975e-18,1.09091,-197,-28.1818)">
			<path class="st0" d="M-373.2,136.7l32.1,42.4l32.1-42.4H-373.2z"/>
		</g>
	</g>
</g>
</svg>
